<?xml version="1.0" encoding="utf-8"?>
<!-- Generator: Adobe Illustrator 22.0.1, SVG Export Plug-In . SVG Version: 6.00 Build 0)  -->
<svg version="1.1" id="Layer_1" xmlns="http://www.w3.org/2000/svg" xmlns:xlink="http://www.w3.org/1999/xlink" x="0px" y="0px"
	 viewBox="0 0 358.5 200" style="enable-background:new 0 0 358.5 200;" xml:space="preserve">
<style type="text/css">
	.st0{fill:#FFFFFF;}
	.st1{fill:#477A0B;}
</style>
<g>
	<path class="st0" d="M24.9,127.7c0,0,23.7-75.9,98.7-82.4c12.6-1,27.1,7.4,29.7,14.6c0,0,6-38.6-31.2-36.8
		C84.8,24.9,36.8,62,26,100.7c0,0-4.3,11.9-1.3,26.1L24.9,127.7z"/>
</g>
<g>
	<path class="st0" d="M45.5,93.4c0,0,2.3,22.4,19.8,21.8c17.9-0.6,37.9-16.3,43.2-21.7c9-9.3,22.1-26.1,15.8-47.8
		c0,0-12.1,40.1-48.7,53.3c0,0-15.8,5.6-24-0.8C43.8,92,45.5,93.4,45.5,93.4"/>
</g>
<g>
	<path class="st0" d="M192.7,89.8h-27.5l-6.7,11.4h-12.8l35.4-59.4h18.1l7.4,59.4h-12.5L192.7,89.8z M191.9,81.4l-3.6-30.9
		l-18.2,30.9H191.9z"/>
</g>
<g>
	<path class="st0" d="M256.5,80h12.1l-0.5,2c-2,8.2-4.9,13.6-8.8,16.1c-3.8,2.4-11.2,3.6-22.3,3.6c-12.6,0-19.8-1.9-21.8-5.8
		c-2-3.8-1-14.1,3-30.7c2.3-9.8,5.9-16.2,10.5-19.3c4.7-3.1,13.2-4.7,25.8-4.7c9,0,14.8,1.2,17.3,3.8c2.4,2.6,2.7,7.6,1,15.1
		l-0.3,1.3h-12.2l0.4-1.5c1-3.9,0.7-6.4-0.6-7.5c-1.2-1.1-4.7-1.6-10.3-1.6c-7.5,0-12.2,0.8-14.2,2.5c-1.9,1.7-3.8,6.8-5.9,15.3
		c-2.8,11.3-3.7,18.1-2.9,20.2c0.9,2.1,5,3.1,12.5,3.1c6,0,10-0.6,12.1-1.8c2.1-1.1,3.6-3.7,4.5-7.6L256.5,80z"/>
</g>
<g>
	<polygon class="st0" points="308.4,51.9 296.6,101.2 284.5,101.2 296.3,51.9 277.9,51.9 280.3,41.8 329.8,41.8 327.4,51.9 	"/>
</g>
<g>
	<polygon class="st0" points="135.6,131.6 142,110.7 316.3,110.7 311.3,131.6 	"/>
</g>
<g>
	<path class="st1" d="M150.2,116.1l-5.4,9.3h1.8l1-1.8h3.8l0.1,1.8h1.8l-0.7-9.3H150.2z M148.4,122.2l2.8-4.8l0.3,4.8H148.4z"/>
	<polygon class="st1" points="163.5,116.1 159.5,119.8 158.7,119.8 159.7,116.1 158,116.1 155.6,125.4 157.3,125.4 158.3,121.4 
		159.1,121.4 161.4,125.4 163.6,125.4 160.8,120.6 165.6,116.1 	"/>
	<path class="st1" d="M171.4,115.9c-1.4,0-2.5,0.2-3,0.6c-0.6,0.3-1,1-1.3,2.2c-0.2,1-0.2,1.7,0.1,2.1c0.3,0.3,1.2,0.6,2.6,0.6
		l0.9,0.1c0.5,0.1,0.8,0.2,1,0.3c0.1,0.2,0.1,0.5,0,0.9c-0.2,0.6-0.3,1-0.6,1.2c-0.3,0.1-0.8,0.2-1.6,0.2c-1,0-1.6-0.1-1.7-0.2
		c-0.2-0.2-0.2-0.6,0-1.2l0-0.1h-1.6l-0.1,0.3c-0.3,1.1-0.2,1.8,0.1,2.1c0.4,0.4,1.3,0.5,2.7,0.5c1.5,0,2.6-0.1,3.2-0.5
		c0.5-0.4,1-1.1,1.3-2.4c0.3-1,0.2-1.6-0.1-2c-0.3-0.3-1.1-0.5-2.5-0.5c-1-0.1-1.8-0.2-1.9-0.3c-0.2-0.1-0.2-0.5-0.1-1.1
		c0.2-0.5,0.3-0.8,0.6-1c0.3-0.1,0.8-0.2,1.6-0.2c0.7,0,1.1,0.1,1.2,0.2c0.2,0.2,0.2,0.5,0.1,1c-0.1,0.1-0.1,0.1-0.1,0.2h1.7
		l0.1-0.3c0.2-1,0.2-1.6-0.2-2C173.6,116.1,172.7,115.9,171.4,115.9z"/>
	<polygon class="st1" points="175.3,125.4 177,125.4 179.3,116.1 177.7,116.1 	"/>
	<path class="st1" d="M191.2,115.9c-1.8,0-3,0.3-3.7,0.8c-0.7,0.5-1.2,1.5-1.6,3c-0.6,2.6-0.8,4.2-0.5,4.8c0.2,0.6,1.3,0.9,3,0.9
		c1.6,0,2.6-0.1,3.2-0.6c0.6-0.4,1-1.2,1.3-2.5l0.1-0.3h-1.7l-0.1,0.5c-0.2,0.6-0.4,1-0.7,1.2c-0.3,0.2-0.9,0.3-1.7,0.3
		c-1.1,0-1.6-0.1-1.7-0.5c-0.1-0.3,0-1.4,0.5-3.2c0.4-1.3,0.7-2.1,1-2.4c0.2-0.3,0.9-0.4,2-0.4c0.8,0,1.3,0.1,1.5,0.3
		c0.2,0.2,0.2,0.5,0,1.2l0,0.2h1.7l0-0.1c0.3-1.2,0.3-2,0-2.4C193.3,116.2,192.5,115.9,191.2,115.9z"/>
	<polygon class="st1" points="194.4,125.4 200.5,125.4 201,123.9 196.5,123.9 197.2,121.2 201.3,121.2 201.7,119.9 197.4,119.9 
		198.1,117.5 202.5,117.5 202.9,116.1 196.7,116.1 	"/>
	<path class="st1" d="M212,116.7c-0.3-0.5-1.1-0.7-2.3-0.7h-0.5h-3.6l-2.4,9.3h1.7l0.8-3h2h0.4c1.3,0,2.1-0.2,2.6-0.6
		c0.5-0.4,1-1.2,1.3-2.5C212.4,118,212.4,117.2,212,116.7z M210.2,119.3c-0.1,0.7-0.4,1.1-0.7,1.3c-0.3,0.2-0.7,0.3-1.5,0.3h-1.9
		l0.9-3.3h2.1c0.7,0,1.1,0.1,1.3,0.3C210.5,118,210.4,118.5,210.2,119.3z"/>
	<path class="st1" d="M217.5,116.1l-5.3,9.3h1.8l1-1.8h3.9l0.1,1.8h1.7l-0.6-9.3H217.5z M215.7,122.2l2.8-4.8l0.3,4.8H215.7z"/>
	<polygon class="st1" points="224.2,117.6 226.8,117.6 224.8,125.4 226.5,125.4 228.5,117.6 231.2,117.6 231.6,116.1 224.6,116.1 	
		"/>
	<polygon class="st1" points="245,116.1 238,116.1 237.6,117.6 240.2,117.6 238.2,125.4 239.9,125.4 241.9,117.6 244.6,117.6 	"/>
	<path class="st1" d="M249.5,116.1l-5.5,9.3h1.9l1-1.8h3.9l0.1,1.8h1.8l-0.7-9.3H249.5z M247.6,122.2l2.8-4.8l0.3,4.8H247.6z"/>
	<path class="st1" d="M262.5,121.4l-0.3,1.2l-0.1,0.6l-0.1,0.6h0l-0.1-0.8l-0.2-0.8c-0.1-0.6-0.2-1.1-0.3-1.5l-1.1-4.7h-2.9
		l-2.4,9.3h1.7l1.4-5.3l0.3-1.3l0.1-0.6l0.1-0.6h0.1l0.1,0.7l0.1,0.7c0.1,0.6,0.2,1.1,0.3,1.3l1.2,5.1h2.9l2.4-9.3h-1.7L262.5,121.4
		z"/>
	<path class="st1" d="M272.3,115.9c-1.2,0-2.1,0.1-2.6,0.4c-0.6,0.2-1.1,0.6-1.5,1.3c-0.4,0.5-0.8,1.8-1.3,3.9
		c-0.4,1.6-0.4,2.6,0,3.1c0.4,0.5,1.4,0.8,2.9,0.8c1.7,0,2.8-0.1,3.4-0.6c0.6-0.4,1-1.3,1.4-2.6l0.4-1.8h-4l-0.3,1.3h2.3l-0.1,0.4
		c-0.2,0.8-0.5,1.3-0.8,1.5c-0.3,0.2-0.9,0.3-1.9,0.3c-1,0-1.5-0.1-1.7-0.4c-0.2-0.2-0.2-0.8,0.1-1.7l0.3-1.2l0.2-0.9
		c0.3-0.9,0.5-1.5,0.8-1.8c0.3-0.3,1-0.4,2-0.4c0.9,0,1.4,0.1,1.7,0.2c0.2,0.1,0.2,0.5,0.1,1.1h1.7c0.3-1.2,0.3-2-0.2-2.3
		C275,116.1,273.9,115.9,272.3,115.9z"/>
	<path class="st1" d="M285.6,118.8c0.3-1.2,0.2-2-0.1-2.3c-0.4-0.4-1.4-0.5-3-0.5c-1.2,0-2.1,0.1-2.7,0.4c-0.6,0.2-1.1,0.6-1.5,1.3
		c-0.3,0.5-0.8,1.8-1.3,3.9c-0.4,1.6-0.5,2.6-0.1,3.1c0.4,0.5,1.3,0.8,2.9,0.8c1.7,0,2.8-0.1,3.4-0.6c0.6-0.4,1.1-1.3,1.4-2.6
		l0.5-1.8h-4l-0.3,1.3h2.3l-0.1,0.4c-0.3,0.8-0.5,1.3-0.8,1.5c-0.4,0.2-1,0.3-1.9,0.3c-0.9,0-1.6-0.1-1.7-0.4
		c-0.2-0.2-0.2-0.8,0-1.7l0.3-1.2l0.3-0.9c0.2-0.9,0.5-1.5,0.9-1.8c0.3-0.3,1-0.4,1.9-0.4c0.9,0,1.5,0.1,1.6,0.2
		c0.2,0.1,0.3,0.5,0.1,1.1H285.6z"/>
	<path class="st1" d="M291.1,116.1l-5.4,9.3h1.9l1-1.8h3.9l0.1,1.8h1.8l-0.7-9.3H291.1z M289.3,122.2l2.8-4.8l0.3,4.8H289.3z"/>
	<path class="st1" d="M305.3,116.7c-0.3-0.5-1.1-0.7-2.3-0.7h-0.4h-3.6l-2.4,9.3h1.8l0.7-3h2.1h0.4c1.2,0,2.1-0.2,2.7-0.6
		c0.5-0.4,0.9-1.2,1.2-2.5C305.6,118,305.6,117.2,305.3,116.7z M303.6,119.3c-0.2,0.7-0.4,1.1-0.7,1.3c-0.2,0.2-0.7,0.3-1.5,0.3
		h-1.9l0.9-3.3h2.1c0.7,0,1.1,0.1,1.2,0.3C303.8,118,303.8,118.5,303.6,119.3z"/>
</g>
<g>
	<path class="st0" d="M34.8,166.3v1.8c-1.2,0.6-2.5,1-4.1,1c-1.2,0-2.3-0.2-3.2-0.8c-0.8-0.5-1.5-1.2-2.1-2.1
		c-0.5-0.9-0.8-1.9-0.8-2.9c0-1.7,0.6-3.1,1.8-4.3c1.1-1.1,2.6-1.7,4.2-1.7c1.2,0,2.5,0.3,4,0.9v1.8c-1.3-0.7-2.6-1.1-3.8-1.1
		c-1.3,0-2.4,0.4-3.2,1.3c-0.8,0.8-1.2,1.8-1.2,3.1c0,1.2,0.4,2.3,1.2,3.1c0.8,0.8,1.9,1.2,3.2,1.2
		C32.2,167.5,33.5,167.1,34.8,166.3"/>
</g>
<g>
	<path class="st0" d="M49.4,157.3h1.2l5,11.6h-1.7l-1.4-3.4h-4.7l-1.4,3.4h-1.6L49.4,157.3z M51.8,164l-1.8-4.2l-1.7,4.2H51.8z"/>
</g>
<g>
	<path class="st0" d="M65.6,168.9v-11.6h2.8c1.1,0,2,0.3,2.7,0.9c0.7,0.6,1,1.4,1,2.4c0,0.7-0.2,1.3-0.5,1.7
		c-0.3,0.5-0.8,0.9-1.4,1.1c0.3,0.2,0.7,0.6,1,1c0.3,0.4,0.8,1.2,1.4,2.2c0.4,0.6,0.7,1.2,0.9,1.5l0.6,0.8h-1.9l-0.5-0.8
		c0,0-0.1-0.1-0.1-0.2l-0.3-0.4l-0.5-0.8l-0.5-0.9c-0.3-0.5-0.6-0.9-0.9-1.2c-0.3-0.2-0.5-0.5-0.7-0.6c-0.2-0.1-0.6-0.2-1.2-0.2
		h-0.4v5H65.6z M67.7,158.8h-0.5v3.6h0.5c0.8,0,1.4-0.1,1.7-0.2c0.3-0.1,0.5-0.4,0.7-0.6c0.2-0.3,0.2-0.6,0.3-1c0-0.4-0.1-0.7-0.3-1
		c-0.2-0.3-0.4-0.5-0.7-0.6C69.1,158.9,68.5,158.8,67.7,158.8"/>
</g>
<g>
	<polygon class="st0" points="84.2,157.3 90.6,157.3 90.6,158.9 85.8,158.9 85.8,162.4 90.4,162.4 90.4,163.8 85.8,163.8 
		85.8,167.5 90.7,167.5 90.7,168.9 84.2,168.9 	"/>
</g>
<g>
	<polygon class="st0" points="114.5,157.3 120.4,157.3 120.4,158.9 116.1,158.9 116.1,162.1 120.4,162.1 120.4,163.5 116.1,163.5 
		116.1,168.9 114.5,168.9 	"/>
</g>
<g>
	<path class="st0" d="M136.4,157.2c1.7,0,3.2,0.6,4.3,1.8c1.2,1.1,1.7,2.5,1.7,4.2c0,1.7-0.5,3.1-1.7,4.2c-1.1,1.1-2.6,1.7-4.4,1.7
		c-1.7,0-3.1-0.6-4.2-1.7c-1.1-1.1-1.7-2.5-1.7-4.2c0-1.7,0.6-3.1,1.7-4.3C133.2,157.8,134.6,157.2,136.4,157.2 M136.5,158.8
		c-1.3,0-2.3,0.4-3.1,1.2c-0.8,0.8-1.3,1.9-1.3,3.2c0,1.2,0.4,2.3,1.3,3.1c0.8,0.8,1.9,1.2,3.1,1.2c1.3,0,2.3-0.4,3.1-1.3
		c0.8-0.8,1.2-1.9,1.2-3.1c0-1.2-0.4-2.3-1.2-3.1C138.7,159.2,137.6,158.8,136.5,158.8"/>
</g>
<g>
	<path class="st0" d="M153.2,168.9v-11.6h2.7c1.2,0,2,0.3,2.7,0.9c0.7,0.6,1,1.4,1,2.4c0,0.7-0.1,1.3-0.5,1.7
		c-0.3,0.5-0.8,0.9-1.4,1.1c0.4,0.2,0.8,0.6,1.1,1c0.3,0.4,0.8,1.2,1.4,2.2c0.4,0.6,0.7,1.2,0.9,1.5l0.6,0.8h-1.9l-0.5-0.8
		c0,0,0-0.1-0.1-0.2l-0.3-0.4l-0.5-0.8l-0.6-0.9c-0.3-0.5-0.6-0.9-0.9-1.2c-0.2-0.2-0.5-0.5-0.7-0.6c-0.3-0.1-0.6-0.2-1.1-0.2h-0.4
		v5H153.2z M155.3,158.8h-0.5v3.6h0.6c0.7,0,1.3-0.1,1.6-0.2c0.3-0.1,0.5-0.4,0.7-0.6c0.2-0.3,0.3-0.6,0.3-1c0-0.4-0.1-0.7-0.3-1
		c-0.2-0.3-0.4-0.5-0.7-0.6C156.6,158.9,156,158.8,155.3,158.8"/>
</g>
<g>
	<polygon class="st0" points="192.9,157.3 194.5,157.3 194.5,168.9 192.9,168.9 192.9,163.9 186.7,163.9 186.7,168.9 185.1,168.9 
		185.1,157.3 186.7,157.3 186.7,162.4 192.9,162.4 	"/>
</g>
<g>
	<path class="st0" d="M213.5,157.3h1.6v6.6c0,0.9,0,1.6-0.2,2c-0.1,0.5-0.3,0.8-0.5,1.1c-0.2,0.3-0.4,0.6-0.7,0.9
		c-0.9,0.7-2,1.1-3.4,1.1c-1.4,0-2.7-0.4-3.5-1.1c-0.3-0.3-0.5-0.5-0.7-0.9c-0.2-0.3-0.4-0.6-0.5-1.1c-0.1-0.4-0.2-1.1-0.2-2.1v-6.6
		h1.6v6.6c0,1.1,0.1,1.9,0.3,2.3c0.3,0.4,0.6,0.8,1.1,1c0.5,0.2,1,0.4,1.7,0.4c0.9,0,1.7-0.2,2.3-0.7c0.3-0.3,0.5-0.6,0.7-1
		c0.2-0.4,0.2-1,0.2-2V157.3z"/>
</g>
<g>
	<polygon class="st0" points="235,157.3 236.4,157.3 236.4,168.9 234.9,168.9 234.9,160 231.5,164.4 231.1,164.4 227.7,160 
		227.7,168.9 226.1,168.9 226.1,157.3 227.6,157.3 231.3,162.1 	"/>
</g>
<g>
	<path class="st0" d="M251.2,157.3h1.1l5,11.6h-1.6l-1.5-3.4h-4.7l-1.4,3.4h-1.7L251.2,157.3z M253.6,164l-1.8-4.2l-1.7,4.2H253.6z"
		/>
</g>
<g>
	<polygon class="st0" points="276.2,157.3 277.7,157.3 277.7,168.9 276.3,168.9 268.9,160.1 268.9,168.9 267.4,168.9 267.4,157.3 
		268.7,157.3 276.2,166.3 	"/>
</g>
<g>
	<rect x="288.9" y="157.3" class="st0" width="1.6" height="11.6"/>
</g>
<g>
	<polygon class="st0" points="300.8,157.3 310.1,157.3 310.1,158.9 306.2,158.9 306.2,168.9 304.6,168.9 304.6,158.9 300.8,158.9 	
		"/>
</g>
<g>
	<polygon class="st0" points="327,157.3 328.9,157.3 324.9,162.8 324.9,168.9 323.2,168.9 323.2,162.8 319.1,157.3 321,157.3 
		324,161.4 	"/>
</g>
</svg>
